<?xml version="1.0" standalone="no"?><!DOCTYPE svg PUBLIC "-//W3C//DTD SVG 1.1//EN" "http://www.w3.org/Graphics/SVG/1.1/DTD/svg11.dtd"><svg t="1610880463139" class="icon" viewBox="0 0 1024 1024" version="1.1" xmlns="http://www.w3.org/2000/svg" p-id="6789" xmlns:xlink="http://www.w3.org/1999/xlink" width="48" height="48"><defs><style type="text/css"></style></defs><path d="M558.976 0.32c-380.032 0-448.704 364.544-459.648 452.032L0.128 653.44v76.48h143.424v291.072l40.128-0.448h281.344v-76.8h-241.28V653.44H88.896a50947.2 50947.2 0 0 1 88.576-177.92c0-23.168 29.568-400.448 380.16-400.448 176.512 0 312.064 62.4 362.56 189.696 51.2 129.28 38.464 341.76-107.392 515.904a212.48 212.48 0 0 0-9.344 12.544v227.84h80.128l-1.664-200.256c152.064-181.504 170.24-438.272 108.8-585.536-73.856-158.016-223.36-234.88-431.744-234.88z" fill="#d81e06" p-id="6790"></path><path d="M512.384 296.256h-70.4L299.52 715.904h84.928l32.064-89.472h116.352l30.272 90.56h86.208l-136.96-420.8zM445.312 546.432l31.36-106.112 31.36 106.112h-62.72z m288.384-250.24h-40.128V716.8h80.192V296.32h-40.064z" fill="#d81e06" p-id="6791"></path></svg>