<?xml version="1.0" encoding="iso-8859-1"?>
<!-- Generator: Adobe Illustrator 16.0.0, SVG Export Plug-In . SVG Version: 6.00 Build 0)  -->
<!DOCTYPE svg PUBLIC "-//W3C//DTD SVG 1.1//EN" "http://www.w3.org/Graphics/SVG/1.1/DTD/svg11.dtd">
<svg version="1.1" id="Capa_1" xmlns="http://www.w3.org/2000/svg" xmlns:xlink="http://www.w3.org/1999/xlink" x="0px" y="0px"
	 width="25.501px" height="25.5px" viewBox="0 0 25.501 25.5" style="enable-background:new 0 0 25.501 25.5;" xml:space="preserve"
	>
<g>
	<g>
		<path d="M25.331,21.502L15.21,13.567l-0.588-0.587c2.379-3.18,2.132-7.716-0.756-10.604c-3.167-3.167-8.323-3.167-11.49,0
			c-3.168,3.168-3.168,8.323,0,11.491C5.264,16.754,9.8,17,12.979,14.623l0.588,0.588l7.936,10.121
			c0.453,0.453,1.679-0.037,2.736-1.095C25.295,23.182,25.786,21.957,25.331,21.502z M12.635,12.636
			c-2.488,2.488-6.539,2.488-9.027,0c-2.489-2.489-2.489-6.539,0-9.028c2.488-2.488,6.539-2.488,9.027,0
			C15.124,6.098,15.124,10.146,12.635,12.636z"/>
		<polygon points="9.213,4.107 7.031,4.107 7.031,7.031 4.108,7.031 4.108,9.213 7.031,9.213 7.031,12.136 9.213,12.136 
			9.213,9.213 12.135,9.213 12.135,7.031 9.213,7.031 		"/>
	</g>
</g>
<g>
</g>
<g>
</g>
<g>
</g>
<g>
</g>
<g>
</g>
<g>
</g>
<g>
</g>
<g>
</g>
<g>
</g>
<g>
</g>
<g>
</g>
<g>
</g>
<g>
</g>
<g>
</g>
<g>
</g>
</svg>
