<?xml version="1.0" standalone="no"?><!DOCTYPE svg PUBLIC "-//W3C//DTD SVG 1.1//EN" "http://www.w3.org/Graphics/SVG/1.1/DTD/svg11.dtd"><svg t="1610880344882" class="icon" viewBox="0 0 1024 1024" version="1.1" xmlns="http://www.w3.org/2000/svg" p-id="5899" xmlns:xlink="http://www.w3.org/1999/xlink" width="48" height="48"><defs><style type="text/css"></style></defs><path d="M278.826667 502.144a242.901333 242.901333 0 0 0 120.576 210.133333 239.872 239.872 0 0 0 241.152 0 242.901333 242.901333 0 0 0 120.576-210.090666c0-133.973333-107.946667-242.645333-241.152-242.645334-133.162667 0-241.152 108.629333-241.152 242.602667z" fill="#CC1F44" p-id="5900"></path><path d="M704.853333 437.418667h-40.192v-32.341334h24.106667l65.92-97.024H857.6v32.341334h-86.826667l-65.92 97.024z m-8.064 48.554666h176.853334v32.341334h-176.810667v-32.341334z" fill="#449EFE" p-id="5901"></path><path d="M809.386667 324.224c0 26.794667 21.546667 48.512 48.213333 48.512 26.624 0 48.213333-21.76 48.213333-48.512 0-26.794667-21.589333-48.512-48.213333-48.512-26.666667 0-48.213333 21.717333-48.213333 48.512z" fill="#FFFFFF" p-id="5902"></path><path d="M857.6 388.906667a64.682667 64.682667 0 0 1 0-129.365334 64.682667 64.682667 0 0 1 0 129.365334z m0-97.024a32.341333 32.341333 0 0 0 0 64.682666 32.341333 32.341333 0 0 0 0-64.682666z m0 404.309333h-102.912l-64.298667-97.024h-25.728v-32.341333h43.392l62.72 97.024h86.784v32.341333z" fill="#449EFE" p-id="5903"></path><path d="M809.386667 680.064c0 26.794667 21.546667 48.512 48.213333 48.512 26.624 0 48.213333-21.76 48.213333-48.512 0-26.794667-21.589333-48.554667-48.213333-48.554667-26.666667 0-48.213333 21.76-48.213333 48.554667z" fill="#FFFFFF" p-id="5904"></path><path d="M857.6 744.746667a64.682667 64.682667 0 0 1 0-129.408 64.682667 64.682667 0 0 1 0 129.408z m0-97.066667a32.341333 32.341333 0 0 0 0 64.725333 32.341333 32.341333 0 0 0 0-64.725333z" fill="#449EFE" p-id="5905"></path><path d="M825.429333 502.144c0 26.794667 21.589333 48.512 48.213334 48.512 26.666667 0 48.213333-21.717333 48.213333-48.512s-21.546667-48.512-48.213333-48.512c-26.624 0-48.213333 21.717333-48.213334 48.512z" fill="#FFFFFF" p-id="5906"></path><path d="M873.642667 566.826667a64.682667 64.682667 0 0 1 0-129.365334 64.682667 64.682667 0 0 1 0 129.365334z m0-97.024a32.341333 32.341333 0 0 0 0 64.682666 32.341333 32.341333 0 0 0 0-64.682666z m-160.768 365.525333l-102.826667-155.306667h-9.685333v-32.341333h25.728l114.133333 169.813333-27.306667 17.834667z" fill="#449EFE" p-id="5907"></path><path d="M680.746667 825.6c0 17.322667 9.173333 33.365333 24.106666 42.026667 14.933333 8.661333 33.28 8.661333 48.213334 0a48.597333 48.597333 0 0 0-24.106667-90.538667c-26.624 0-48.213333 21.76-48.213333 48.512z" fill="#FFFFFF" p-id="5908"></path><path d="M728.96 890.282667a64.682667 64.682667 0 0 1 0-129.365334 64.682667 64.682667 0 0 1 0 129.365334z m0-97.024a32.341333 32.341333 0 0 0 0 64.682666 32.341333 32.341333 0 0 0 0-64.682666zM626.090667 356.565333h-106.112v-32.341333h90.026666l104.533334-122.922667 24.106666 21.034667-112.554666 134.229333z" fill="#449EFE" p-id="5909"></path><path d="M680.746667 210.986667c0 17.365333 9.173333 33.365333 24.106666 42.026666 14.933333 8.661333 33.28 8.661333 48.213334 0a48.597333 48.597333 0 0 0-24.106667-90.538666c-26.624 0-48.213333 21.76-48.213333 48.512z" fill="#FFFFFF" p-id="5910"></path><path d="M728.96 275.712a64.682667 64.682667 0 0 1 0-129.408 64.682667 64.682667 0 0 1 0 129.408z m0-97.066667a32.341333 32.341333 0 0 0 0 64.725334 32.341333 32.341333 0 0 0 0-64.725334z" fill="#449EFE" p-id="5911"></path><path d="M407.466667 130.133333a111.018667 111.018667 0 0 0-107.733334 80.853334c-64.298667 1.621333-117.333333 63.061333-117.333333 137.472 0 6.485333 0 11.349333 1.578667 17.834666C137.344 388.906667 101.973333 448.768 101.973333 518.314667c0 45.269333 14.506667 85.717333 35.413334 114.816-3.242667 16.213333-4.864 33.962667-3.242667 51.754666 8.064 76.032 69.12 129.408 135.04 122.922667 17.706667 46.933333 65.92 82.474667 122.197333 82.474667 70.698667 0 128.597333-54.954667 128.597334-121.258667V243.370667c0-61.44-49.834667-113.237333-112.554667-113.237334z" fill="#CC1F44" p-id="5912"></path><path d="M391.338667 906.496c-57.856 0-109.312-32.384-131.84-80.896-69.12 1.621333-131.797333-58.197333-139.818667-137.472a174.933333 174.933333 0 0 1 1.578667-50.133333c-22.485333-32.341333-35.370667-74.410667-35.370667-118.058667 0-71.168 32.170667-134.272 80.426667-161.749333v-8.106667c0-79.232 53.034667-143.914667 122.154666-152.021333 19.285333-48.512 67.541333-82.474667 118.954667-82.474667 70.741333 0 128.64 58.24 128.64 129.408v525.653333c0 74.368-64.298667 135.850667-144.682667 135.850667z m-110.933334-114.858667l4.864 11.349334c16.085333 42.026667 57.856 71.168 106.112 71.168 62.677333 0 112.512-46.933333 112.512-105.173334V243.328A97.024 97.024 0 0 0 407.466667 146.346667c-41.813333 0-80.384 29.098667-93.269334 69.546666l-3.2 11.306667h-11.264c-56.277333 1.621333-101.290667 56.618667-101.290666 121.344 0 4.821333 0 9.685333 1.621333 14.506667l1.621333 11.349333-11.264 4.864C147.029333 398.634667 118.058667 455.253333 118.058667 516.693333c0 40.448 11.306667 77.653333 32.170666 105.130667l4.821334 6.485333-1.621334 8.106667a151.04 151.04 0 0 0-3.2 46.890667c8.064 66.304 61.098667 114.816 117.333334 108.373333h12.885333z" fill="#CC1F44" p-id="5913"></path><path d="M311.978667 243.370667c0-12.970667 1.621333-24.277333 4.821333-37.205334l30.549333 9.685334c-3.2 9.728-3.2 17.792-3.2 27.52a97.024 97.024 0 0 0 96.426667 97.024v32.341333c-70.698667 0-128.597333-58.197333-128.597333-129.365333zM254.72 526.378667l16.085333-27.477334c28.928 17.792 62.677333-3.242667 85.205334-29.098666 25.728-30.72 61.098667-48.554667 93.226666-48.554667 25.728 0 48.213333 11.349333 65.92 30.72 7.509333 8.96 13.994667 18.730667 19.285334 29.141333l-28.928 12.928a67.882667 67.882667 0 0 0-14.506667-22.613333 53.930667 53.930667 0 0 0-41.770667-19.413333c-24.106667 0-49.834667 14.506667-69.12 37.162666-25.728 32.384-56.277333 48.554667-85.205333 48.554667-14.506667 0-27.306667-3.242667-40.192-11.349333z m138.24-294.357334l30.549333-11.306666c14.506667 40.405333 53.077333 63.061333 93.269334 53.333333l6.4 32.384c-9.642667 3.242667-16.042667 3.242667-24.106667 3.242667-46.592 0-88.405333-29.098667-106.112-77.653334z m-1.578667 525.653334a112.981333 112.981333 0 0 1 130.176-74.410667l-6.4 32.384c-40.192-9.728-77.184 12.928-93.226666 53.333333l-30.549334-11.306666z" fill="#FFFFFF" p-id="5914"></path><path d="M295.424 372.224H263.253333c0-42.026667 38.570667-71.125333 77.184-80.853333l8.021334 30.72c-25.728 8.106667-53.034667 25.898667-53.034667 50.133333z m-3.242667 323.498667c-38.570667-9.728-77.141333-38.826667-77.141333-80.853334h32.128c0 24.234667 27.349333 42.026667 51.456 48.512l-6.4 32.341334z" fill="#FFFFFF" p-id="5915"></path><path d="M519.978667 405.077333h48.213333v32.384h-48.213333v-32.384z m80.384 0h32.170666v32.384h-32.170666v-32.384z m0 161.749334h32.170666v32.341333h-32.170666v-32.341333z m-80.384 0h48.213333v32.341333h-48.213333v-32.341333z m0 80.853333h48.213333v32.384h-48.213333v-32.384z m0-161.706667h80.384v32.341334h-80.384v-32.341334z m112.554666 0h32.128v32.341334h-32.170666v-32.341334z" fill="#449EFE" p-id="5916"></path><path d="M280.96 820.266667a141.098667 141.098667 0 0 1-17.706667-66.346667c0-71.168 56.32-129.365333 128.597334-135.850667v-1.621333c0-38.826667 46.634667-80.853333 80.426666-80.853333v32.341333c-16.085333 0-48.213333 29.098667-48.213333 48.512v32.384H407.893333c-62.677333 0-112.512 46.848-112.512 105.088 0 17.834667 4.821333 35.584 14.464 50.133333l-28.928 16.213334z m-82.517333-237.226667v-32.384a39.68 39.68 0 0 0 28.586666-11.733333 40.149333 40.149333 0 0 0 11.605334-28.714667 40.149333 40.149333 0 0 0-11.648-28.714667 39.68 39.68 0 0 0-28.544-11.690666v-32.384c19.2-0.085333 37.674667 7.552 51.242666 21.248 13.610667 13.653333 21.205333 32.213333 21.12 51.541333 0.085333 19.328-7.509333 37.888-21.12 51.584-13.568 13.653333-32 21.290667-51.2 21.205333z" fill="#FFFFFF" p-id="5917"></path><path d="M503.893333 97.792h42.666667v824.874667h-42.666667V97.792z m0-97.024h42.666667v64.682667h-42.666667V0.768z m0 954.24h42.666667V1019.733333h-42.666667v-64.682666z" fill="#449EFE" p-id="5918"></path></svg>