<?xml version="1.0" standalone="no"?><!DOCTYPE svg PUBLIC "-//W3C//DTD SVG 1.1//EN" "http://www.w3.org/Graphics/SVG/1.1/DTD/svg11.dtd"><svg t="1606731098215" class="icon" viewBox="0 0 1024 1024" version="1.1" xmlns="http://www.w3.org/2000/svg" p-id="3917" xmlns:xlink="http://www.w3.org/1999/xlink" width="200" height="200"><defs><style type="text/css"></style></defs><path d="M840.06912 427.8784h-72.90368V309.83168C767.16544 178.52928 654.99648 71.68 517.12 71.68S267.07968 178.52928 267.07968 309.83168V427.8784h-72.9088A81.56672 81.56672 0 0 0 112.64 509.2864v361.6256A81.56672 81.56672 0 0 0 194.17088 952.32h645.89824A81.56672 81.56672 0 0 0 921.6 870.912V509.2864a81.56672 81.56672 0 0 0-81.53088-81.408zM323.5072 309.83168c0-100.23936 86.85568-181.79072 193.6128-181.79072s193.6128 81.55648 193.6128 181.79072V427.8784h-387.2256V309.83168zM865.17248 870.912a25.088 25.088 0 0 1-25.088 25.088H194.17088a25.088 25.088 0 0 1-25.088-25.088V509.2864a25.088 25.088 0 0 1 25.088-25.088h645.89824a25.088 25.088 0 0 1 25.088 25.088v361.6256z" fill="#2966C1" p-id="3918"></path><path d="M576.55296 635.64288a53.248 53.248 0 0 0-106.44992 0 51.51744 51.51744 0 0 0 24.64256 43.71968v82.7392a28.59008 28.59008 0 0 0 57.1648 0v-82.7392a51.51744 51.51744 0 0 0 24.64256-43.71968z" fill="#FD9A16" p-id="3919"></path></svg>