<?xml version="1.0" standalone="no"?><!DOCTYPE svg PUBLIC "-//W3C//DTD SVG 1.1//EN" "http://www.w3.org/Graphics/SVG/1.1/DTD/svg11.dtd"><svg t="1610962397300" class="icon" viewBox="0 0 1024 1024" version="1.1" xmlns="http://www.w3.org/2000/svg" p-id="7099" xmlns:xlink="http://www.w3.org/1999/xlink" width="48" height="48"><defs><style type="text/css"></style></defs><path d="M307.2 500.736c7.168 0 12.8-5.632 12.8-12.8v-133.12c0-7.168-5.632-12.8-12.8-12.8-1.024 0-1.536 0.512-2.048 1.024-2.56 0-5.12 0.512-7.168 2.56l-38.912 38.912c-5.12 5.12-5.12 13.312 0 17.92 2.048 3.072 5.632 4.096 8.704 4.096s6.656-1.024 9.216-3.584l17.408-17.408v102.4c0 7.168 5.632 12.8 12.8 12.8zM602.112 816.64c7.168 0 12.8-5.632 12.8-12.8v-133.12c0-3.072-1.024-6.656-3.584-9.216-5.12-5.12-13.312-5.12-17.92 0l-37.888 37.888c-5.12 5.12-5.12 13.312 0 17.92 2.56 2.56 5.632 3.584 9.216 3.584 3.072 0 6.656-1.024 9.216-3.584l16.384-16.384v102.4c-1.024 7.168 4.608 13.312 11.776 13.312zM424.96 449.536h3.584c27.648 0 49.664-22.528 49.664-49.664V340.48a49.664 49.664 0 0 0-49.664-49.664H424.96a49.664 49.664 0 0 0-49.664 49.664V399.36c-0.512 27.648 22.016 50.176 49.664 50.176z m-24.576-109.056c0-13.312 10.752-24.064 24.064-24.064h3.584c13.312 0 24.064 10.752 24.064 24.064V399.36c0 13.312-10.752 24.064-24.064 24.064H424.96a24.064 24.064 0 0 1-24.064-24.064V340.48zM551.424 315.392c3.072 0 6.656-1.024 9.216-3.584l17.408-17.408v102.4c0 6.656 5.632 12.8 12.8 12.8s12.8-5.632 12.8-12.8v-133.12c0-1.536-1.024-2.56-1.536-4.096-0.512-1.536-0.512-3.584-2.048-5.12-2.56-2.56-5.632-3.584-9.216-3.584s-6.656 1.536-9.216 3.584l-38.912 38.912c-5.12 5.12-5.12 13.312 0 17.92 2.56 2.56 5.632 4.096 8.704 4.096zM717.312 449.536h3.584c27.648 0 49.664-22.528 49.664-49.664V340.48a49.664 49.664 0 0 0-49.664-49.664h-3.584a49.664 49.664 0 0 0-49.664 49.664V399.36c0 27.648 22.016 50.176 49.664 50.176z m-24.064-109.056c0-13.312 10.752-24.064 24.064-24.064h3.584c13.312 0 24.064 10.752 24.064 24.064V399.36c0 13.312-10.752 24.064-24.064 24.064h-3.584a24.064 24.064 0 0 1-24.064-24.064V340.48zM610.304 458.752a49.664 49.664 0 0 0-49.664 49.664v58.88c0 27.648 22.528 49.664 49.664 49.664h3.584c27.648 0 49.664-22.528 49.664-49.664V508.416a49.664 49.664 0 0 0-49.664-49.664h-3.584z m28.16 49.664v58.88c0 13.312-10.752 24.064-24.064 24.064h-3.584a24.064 24.064 0 0 1-24.064-24.064V508.416c0-13.312 10.752-24.064 24.064-24.064H614.4c12.8 0 24.064 10.752 24.064 24.064zM437.76 489.472h-3.584a50.176 50.176 0 0 0-50.176 49.664v58.88c0 27.648 22.528 49.664 49.664 49.664h3.584c27.648 0 49.664-22.528 49.664-49.664v-58.88a49.2544 49.2544 0 0 0-49.152-49.664z m24.064 109.056c0 13.312-10.752 24.064-24.064 24.064h-3.584c-13.824 0-24.576-10.752-24.576-24.064v-58.88c0-13.312 10.752-24.064 24.064-24.064h3.584c13.312 0 24.064 10.752 24.064 24.064v58.88zM463.872 688.128a49.664 49.664 0 0 0-49.664 49.664v58.88c0 27.648 22.528 49.664 49.664 49.664h3.584c27.648 0 49.664-22.528 49.664-49.664v-58.88a49.664 49.664 0 0 0-49.664-49.664h-3.584z m27.648 50.176v58.88c0 13.312-10.752 24.064-24.064 24.064h-3.584a24.064 24.064 0 0 1-24.064-24.064v-58.88c0-13.312 10.752-24.064 24.064-24.064h3.584c13.312-0.512 24.064 10.752 24.064 24.064zM419.328 140.8c3.072 0 6.656-1.024 9.216-3.584l17.408-17.408V220.16c0 7.168 5.632 12.8 12.8 12.8s12.8-6.144 12.8-12.8V89.088c0-7.168-5.632-12.8-12.8-12.8-1.024 0-1.536 0.512-2.048 1.024-2.56 0.512-5.12 1.024-7.168 3.072l-38.912 38.4c-5.12 5.12-5.12 13.312 0 17.92 2.56 3.072 5.632 4.096 8.704 4.096zM712.704 156.672c3.072 0 6.656-1.024 9.216-3.584l17.408-17.408v100.352c0 7.168 5.632 12.8 12.8 12.8s12.8-5.632 12.8-12.8V104.96c0-1.536-1.024-2.56-1.536-4.096-0.512-1.536-0.512-3.584-2.048-5.12a12.544 12.544 0 0 0-16.896-0.512c-0.512 0.512-1.024 0-1.536 0.512l-39.424 38.912c-5.12 5.12-5.12 13.312 0 17.92 2.56 3.072 6.144 4.096 9.216 4.096zM297.984 279.04h3.584c27.648 0 49.664-22.528 49.664-49.664V172.544a49.664 49.664 0 0 0-49.664-49.664h-3.584a49.664 49.664 0 0 0-49.664 49.664v56.832c0 27.648 22.016 49.664 49.664 49.664z m-24.064-106.496c0-13.312 10.752-24.064 24.064-24.064h3.584c13.312 0 24.064 10.752 24.064 24.064v56.832c0 13.312-10.752 24.064-24.064 24.064h-3.584a24.064 24.064 0 0 1-24.064-24.064V172.544zM588.8 195.072h3.584c27.648 0 49.664-22.528 49.664-49.664V88.064a49.664 49.664 0 0 0-49.664-49.664h-3.584a49.664 49.664 0 0 0-49.664 49.664v56.832c0 27.648 22.528 50.176 49.664 50.176z m-24.064-107.008c0-13.312 10.752-24.064 24.064-24.064h3.584c13.312 0 24.064 10.752 24.064 24.064v56.832c0 13.312-10.752 24.064-24.064 24.064h-3.584a24.064 24.064 0 0 1-24.064-24.064V88.064z" fill="#10A957" p-id="7100"></path><path d="M986.112 299.008c0-46.08-74.24-75.776-136.192-92.16-7.168-2.048-13.824 2.56-15.872 9.216-2.048 6.656 2.048 13.824 9.216 15.872 86.528 23.04 117.248 49.664 117.248 67.072 0 19.456-35.328 48.128-135.168 71.68-6.656 1.536-11.264 8.704-9.728 15.36 1.536 5.632 6.656 9.728 12.288 9.728 1.024 0 2.048 0 3.072-0.512 23.04-5.632 47.104-12.288 69.12-20.992-174.08 201.728-261.632 370.688-266.24 513.024H389.632c-5.632-180.736-130.048-357.376-264.704-512 24.064 8.704 50.176 16.384 74.752 22.016 1.024 0 2.048 0.512 3.072 0.512 5.632 0 11.264-4.096 12.288-9.728a12.8 12.8 0 0 0-9.728-15.36c-104.448-24.064-141.824-54.784-141.824-73.728 0-17.408 30.208-44.032 115.712-66.56 6.656-2.048 10.752-8.704 9.216-15.872a13.7216 13.7216 0 0 0-15.872-9.216c-61.44 16.384-134.656 45.568-134.656 91.648 0 14.336 7.68 27.136 19.968 38.912 0 0 0 0.512 0.512 1.024C209.92 505.856 365.056 702.976 365.056 901.12v51.712c0 18.432 14.848 33.28 33.28 33.28h227.328c18.432 0 33.28-14.848 33.28-33.28V901.12c0-150.528 100.352-334.336 307.2-562.176 0 0 0-0.512 0.512-1.024 11.776-11.776 19.456-24.064 19.456-38.912z m-353.28 653.312c0 4.096-3.584 7.68-7.68 7.68H397.824c-4.096 0-7.68-3.584-7.68-7.68v-38.912h242.688v38.912z" fill="#10A957" p-id="7101"></path><path d="M902.656 479.232c-140.8 156.672-210.432 323.072-206.336 493.568 0 7.168 5.632 12.288 12.8 12.288h0.512c7.168 0 12.8-6.144 12.288-13.312-3.584-164.352 63.488-324.096 199.68-476.16 4.608-5.12 4.096-13.312-1.024-17.92a13.4144 13.4144 0 0 0-17.92 1.536zM99.328 478.208c-5.632 4.608-5.632 12.8-1.024 18.432 136.192 151.552 203.776 311.808 199.68 476.16 0 7.168 5.632 12.8 12.288 13.312h0.512c7.168 0 12.8-5.632 12.8-12.288 4.096-171.008-65.536-336.896-206.336-493.568a12.0832 12.0832 0 0 0-17.92-2.048z" fill="#10A957" p-id="7102"></path></svg>