<?xml version="1.0" standalone="no"?><!DOCTYPE svg PUBLIC "-//W3C//DTD SVG 1.1//EN" "http://www.w3.org/Graphics/SVG/1.1/DTD/svg11.dtd"><svg t="1606731062504" class="icon" viewBox="0 0 1024 1024" version="1.1" xmlns="http://www.w3.org/2000/svg" p-id="3153" xmlns:xlink="http://www.w3.org/1999/xlink" width="200" height="200"><defs><style type="text/css"></style></defs><path d="M512 329.728m-201.728 0a201.728 201.728 0 1 0 403.456 0 201.728 201.728 0 1 0-403.456 0Z" fill="#CCDAFF" p-id="3154"></path><path d="M819.2 761.856c0 15.872-2.56 31.232-14.336 45.568-43.008 51.712-157.696 89.088-292.864 89.088-134.656 0-249.856-36.864-292.864-89.088-11.776-14.336-14.336-29.696-14.336-45.568 0-15.872 2.56-31.232 14.336-45.568 43.008-51.712 157.696-89.088 292.864-89.088 134.656 0 249.856 36.864 292.864 89.088 11.776 13.824 14.336 29.184 14.336 45.568z" fill="#7A7AF9" p-id="3155"></path></svg>