<?xml version="1.0" standalone="no"?><!DOCTYPE svg PUBLIC "-//W3C//DTD SVG 1.1//EN" "http://www.w3.org/Graphics/SVG/1.1/DTD/svg11.dtd"><svg t="1610880240629" class="icon" viewBox="0 0 1024 1024" version="1.1" xmlns="http://www.w3.org/2000/svg" p-id="3136" xmlns:xlink="http://www.w3.org/1999/xlink" width="48" height="48"><defs><style type="text/css"></style></defs><path d="M31.097173 334.984533s90.112-276.138667 399.496534-328.362666c0 0-47.445333 68.027733-92.5696 176.4352 0 0-94.8224-10.3424-117.009067 86.152533 0 0.068267-101.2736 18.295467-189.917867 65.774933z m192.2048-10.308266s-130.56 27.648-214.357333 89.3952c0 0-43.588267 183.569067 61.678933 355.2256 0 0 108.373333 23.722667 217.531734 12.663466 0 0-0.8192-68.130133 43.52-102.161066 0 0-53.76-138.308267-40.3456-285.525334 0 0-55.364267-13.448533-68.061867-69.597866h0.034133zM114.10944 833.365333s138.478933 213.674667 459.639467 184.32c0 0-114.039467-108.305067-137.557334-143.121066 0 0-89.429333 22.1184-120.285866-41.1648 0 0-115.541333 17.442133-201.796267 0z m367.104 7.953067s22.186667-9.557333 30.378667-63.2832c0 0 178.414933-62.532267 288.4608-230.229333 0 0 34.816 2.389333 59.2896-16.5888 0 0 83.182933 77.5168 122.641066 178.7904 0 0-77.585067 221.525333-329.079466 292.6592-0.1024 0.068267-113.152-73.5232-171.690667-161.28v-0.068267zM937.71264 232.891733s129.604267 148.6848 71.133867 401.1008c0 0-72.021333-116.053333-107.758934-142.916266 0 0 32.119467-62.2592-4.778666-108.1344 0 0 34.235733-66.9696 41.3696-150.016v-0.034134z m-546.679467-33.006933s38.024533 30.651733 39.492267 58.606933c0 0 160.836267 9.966933 300.1344 97.518934 0 0 62.225067-51.2 122.402133-13.141334 0 0 33.109333-61.201067 40.0384-173.568 0 0-124.450133-163.498667-383.8976-169.301333 0 0.034133-101.307733 137.659733-118.203733 199.8848h0.034133z m-44.2368 197.8368s74.8544 4.778667 87.552-83.8656c0 0 148.138667 13.7216 266.24 83.8656 0 0-28.433067 89.634133 44.817067 133.461333 0 0-73.8304 111.172267-242.0736 190.8736 0 0-33.1776-76.936533-120.251733-62.805333 0.1024 0-35.293867-67.925333-36.283734-261.5296z" fill="#FFA464" p-id="3137"></path></svg>