<?xml version="1.0" standalone="no"?><!DOCTYPE svg PUBLIC "-//W3C//DTD SVG 1.1//EN" "http://www.w3.org/Graphics/SVG/1.1/DTD/svg11.dtd"><svg t="1610960535841" class="icon" viewBox="0 0 1024 1024" version="1.1" xmlns="http://www.w3.org/2000/svg" p-id="1749" xmlns:xlink="http://www.w3.org/1999/xlink" width="48" height="48"><defs><style type="text/css"></style></defs><path d="M48.8 512.064v452.864c0 32.64 28.032 59.072 62.72 59.072h313.408c34.624 0 62.72-26.432 62.72-59.072s-28.096-59.072-62.72-59.072H174.176V118.144h250.752c34.624 0 62.72-26.432 62.72-59.072C487.648 26.496 459.552 0 424.928 0H111.52C76.832 0 48.8 26.496 48.8 59.072v452.992z m906.752-42.752a59.2 59.2 0 0 1 0 87.872l-198.08 177.28a59.648 59.648 0 0 1-39.808 15.168 59.328 59.328 0 0 1-59.392-59.136c0-17.408 7.616-33.088 19.712-43.904l82.944-74.24H400.8a59.264 59.264 0 0 1-59.456-59.072c0-32.64 26.624-59.072 59.456-59.072h360.128l-82.944-74.24a58.88 58.88 0 0 1-19.648-43.904c0-32.64 26.624-59.072 59.392-59.072 15.296 0 29.248 5.696 39.808 15.168l198.016 177.152z" fill="#D4237A" p-id="1750"></path></svg>